<svg width="849" height="270" viewBox="0 0 849 270" fill="none" xmlns="http://www.w3.org/2000/svg">
<g clip-path="url(#clip0_59_26)">
<path d="M489.5 31L453 49V155C453 196.2 500.667 188.167 524.5 179L518.5 147.5C498.1 158.3 493.333 144 493.5 135.5V51C493.5 44.6 490.833 35 489.5 31Z" fill="black"/>
<path d="M482.5 18L446.5 36.5C439.5 32.5 432.5 32.5 428 32.5C405.2 32.5 400.167 46.5 400.5 53.5V63.5H429V94H400.5V184H360V94H343.5V63.5H361V41C361.4 11 392.167 1.16667 407.5 0H442.5C464.5 0 478.333 12 482.5 18Z" fill="black"/>
<path d="M704.5 55H663.5L707 120L662 184H703L726.5 150.5L750 183.5H790L746 119L790 55H748.5L726.5 89.5L704.5 55Z" fill="black"/>
<path d="M844 184V55H804.5V184H844Z" fill="black"/>
<path d="M601 52H601.017L601.033 52.001C627.67 53.76 643.422 64.4502 652.885 75.8681C662.331 87.2664 665.482 99.3649 666.975 103.842C668.205 107.533 668.45 113.028 668.274 118.342C668.099 123.673 667.497 128.894 666.994 132.078L666.928 132.5H570.064C571.673 145.187 578.45 151.535 585.214 154.735C592.046 157.968 598.888 157.999 600.458 157.999C618.712 154.812 625.081 146.114 626.015 142.379L626.144 141.864L626.649 142.023L660.149 152.523L660.721 152.702L660.442 153.232C653.978 165.555 643.216 173.827 632.422 179.161C621.63 184.494 610.769 186.91 604.044 187.498L604.021 187.5H595.992C569.453 187.098 552.479 176.953 542.065 164.395C531.667 151.855 527.836 136.942 527.5 127.017V113.977L527.502 113.953C530.521 82.2536 547.276 66.7337 564.107 59.1689C580.902 51.6209 597.749 52 601 52ZM599.009 79.5039C594.175 79.4191 586.866 80.7889 580.601 85.1816C574.313 89.5905 569.109 97.0241 568.501 108.979L568.474 109.504H627.51L627.5 108.994C627.415 104.658 625.89 97.8051 621.595 91.7744C617.286 85.7248 610.198 80.518 599.045 79.5058L599.027 79.5039H599.009Z" fill="black"/>
<path d="M40.5402 0.226694C41.632 -0.139344 260.659 0.0178284 265.253 0.146616C266.093 0.170119 266.054 0.822181 267.62 0.967905C271.111 1.29225 270.948 1.631 277.972 3.93568C285.909 6.54081 300.326 20.7129 302.993 30.2804C305.287 38.5039 304.917 38.5891 305.198 39.2745C306.089 41.4426 305.992 41.5179 305.992 168.075C305.992 226.284 306.22 226.394 304.251 233.414C303.77 235.126 300.943 245.202 293.78 253.031C283.995 263.728 270.356 267.989 263.369 268.274C258.346 268.478 122.35 268.407 121.817 268.316C118.553 267.655 122.64 237.469 123.767 235.774C123.841 235.664 127.219 225.7 130.946 220.82C141.169 207.443 143.606 208.566 149.134 205.214C163.156 196.711 224.498 202 234.274 199.332C238.591 198.154 236.278 196.062 236.994 149.269C237.367 148.555 237.361 148.567 236.994 147.866C236.394 141.257 233.861 142.832 227.166 142.855C177.712 143.027 144.534 139.16 114.751 155.723C62.1472 184.977 65.7402 242.964 64.302 251.264C62.1284 263.804 65.1164 269.337 58.4084 269.301C43.5399 269.22 15.3958 271.255 2.57345 236.198C-0.506335 227.779 0.949264 227.509 0.585165 226.836C-0.0137129 225.728 0.0519615 225.65 0.0519615 98.9738C0.0519594 39.2816 -1.07494 36.4002 7.1672 22.8204C18.7076 3.80582 35.6458 1.93918 40.5402 0.226694ZM229.522 59.4728C228.216 58.7697 78.6003 58.9414 77.6457 59.3908C68.4553 63.7182 69.9816 66.3708 69.9816 90.5128C69.9816 109.078 68.4183 112.118 78.1779 116.219C81.4 116.343 228.527 116.771 230.014 115.962C238.294 111.424 236.882 109.381 236.882 84.8712C236.882 66.2467 238.311 64.2868 229.522 59.4728Z" fill="#3EE26E"/>
<path d="M584.897 218.654C584.482 217.144 584.916 216.389 586.2 216.389H591.439C592.327 216.389 592.922 217.012 593.224 218.258L598.604 240.518C599.001 242.141 599.256 243.255 599.369 243.859C599.501 244.445 599.615 245.398 599.709 246.72H599.851C599.945 245.398 600.039 244.397 600.134 243.718C600.228 243.038 600.502 241.915 600.955 240.348L607.27 218.484C607.667 217.087 608.46 216.389 609.649 216.389H614.86C616.05 216.389 616.843 217.087 617.239 218.484L623.555 240.348C624.008 241.915 624.282 243.038 624.376 243.718C624.47 244.397 624.565 245.398 624.659 246.72H624.801C624.895 245.398 624.999 244.445 625.112 243.859C625.244 243.255 625.509 242.141 625.905 240.518L631.286 218.258C631.588 217.012 632.183 216.389 633.07 216.389H638.31C639.593 216.389 640.028 217.144 639.612 218.654L629.983 254.253C629.492 256.084 628.605 257 627.321 257H622.365C621.27 257 620.468 256.094 619.958 254.281L613.161 230.549C612.783 229.265 612.566 228.434 612.51 228.057C612.453 227.66 612.378 226.933 612.283 225.876H612.227C612.132 226.933 612.057 227.66 612 228.057C611.943 228.434 611.726 229.265 611.349 230.549L604.552 254.281C604.042 256.094 603.24 257 602.144 257H597.188C595.905 257 595.017 256.084 594.526 254.253L584.897 218.654Z" fill="#3EE26E"/>
<path d="M666.497 257C665.176 257 664.515 256.292 664.515 254.876V218.513C664.515 217.097 665.176 216.389 666.497 216.389H670.802C672.124 216.389 672.784 217.097 672.784 218.513V254.876C672.784 256.292 672.124 257 670.802 257H666.497Z" fill="#3EE26E"/>
<path d="M703.549 257C702.228 257 701.567 256.292 701.567 254.876V218.513C701.567 217.097 702.228 216.389 703.549 216.389H716.662C722.496 216.389 726.753 217.295 729.434 219.107C732.115 220.901 733.456 223.827 733.456 227.887C733.456 230.908 732.37 233.315 730.199 235.108C728.028 236.902 725.271 238.091 721.929 238.677V238.733C723.742 239.413 725.111 240.357 726.036 241.565C726.961 242.774 727.716 243.831 728.301 244.737L734.532 254.564C735.57 256.188 735.211 257 733.456 257H728.528C727.489 257 726.64 256.443 725.979 255.329L720.258 245.785C719.635 244.766 718.493 243.652 716.832 242.443C715.189 241.216 713.556 240.603 711.932 240.603H709.836V254.876C709.836 256.292 709.176 257 707.854 257H703.549ZM709.836 233.579H714.906C718.682 233.579 721.363 233.154 722.949 232.305C724.554 231.436 725.356 230.067 725.356 228.198C725.356 226.159 724.582 224.838 723.034 224.233C721.504 223.61 719.248 223.299 716.265 223.299H709.836V233.579Z" fill="#3EE26E"/>
<path d="M763.711 257C762.389 257 761.728 256.292 761.728 254.876V218.513C761.728 217.097 762.389 216.389 763.711 216.389H788.01C789.426 216.389 790.134 217.002 790.134 218.229V221.571C790.134 222.799 789.426 223.412 788.01 223.412H769.998V232.418H786.509C787.925 232.418 788.633 233.032 788.633 234.259V237.601C788.633 238.828 787.925 239.441 786.509 239.441H769.998V249.977H788.916C790.332 249.977 791.04 250.59 791.04 251.817V255.159C791.04 256.386 790.332 257 788.916 257H763.711Z" fill="#3EE26E"/>
<path d="M818.18 253.97C817.009 253.082 816.726 252.186 817.33 251.279L819.511 247.994C820.228 246.918 821.276 246.861 822.654 247.824C823.712 248.561 825.09 249.325 826.789 250.118C828.507 250.892 830.31 251.279 832.198 251.279C833.52 251.279 834.794 251.128 836.022 250.826C837.249 250.524 838.183 249.939 838.825 249.07C839.467 248.202 839.788 247.173 839.788 245.983C839.788 245.134 839.647 244.388 839.363 243.746C839.08 243.104 838.618 242.576 837.976 242.16C837.334 241.745 836.673 241.396 835.993 241.112C834.804 240.621 833.303 240.14 831.49 239.668C829.697 239.177 827.922 238.592 826.166 237.912C824.599 237.308 823.164 236.477 821.861 235.42C820.559 234.363 819.549 233.173 818.831 231.852C818.114 230.53 817.755 228.765 817.755 226.556C817.755 223.931 818.605 221.685 820.304 219.815C822.003 217.946 823.957 216.747 826.166 216.219C828.375 215.69 830.603 215.426 832.85 215.426C835.078 215.426 837.371 215.766 839.732 216.445C842.11 217.125 843.904 217.975 845.112 218.994C846.302 219.995 846.594 220.901 845.99 221.713L843.696 224.8C842.922 225.857 841.884 225.942 840.581 225.055C839.75 224.488 838.608 223.856 837.154 223.157C835.719 222.459 834.219 222.109 832.651 222.109C831.538 222.109 830.509 222.204 829.565 222.393C828.639 222.581 827.818 223.035 827.101 223.752C826.383 224.469 826.024 225.357 826.024 226.414C826.024 227.434 826.289 228.264 826.817 228.906C827.346 229.529 827.931 230.001 828.573 230.322C829.215 230.624 829.867 230.879 830.527 231.087C832.566 231.748 834.388 232.333 835.993 232.843C837.598 233.334 839.08 233.881 840.44 234.485C842.328 235.335 843.772 236.185 844.773 237.034C845.773 237.884 846.594 239.045 847.236 240.518C847.897 241.99 848.228 243.746 848.228 245.785C848.228 248.806 847.265 251.308 845.339 253.29C843.413 255.254 841.27 256.519 838.91 257.085C836.569 257.67 834.285 257.963 832.057 257.963C828.772 257.963 826.1 257.642 824.042 257C821.984 256.377 820.03 255.367 818.18 253.97Z" fill="#3EE26E"/>
<path d="M824 40C835.046 40 844 31.0457 844 20C844 8.9543 835.046 0 824 0C812.954 0 804 8.9543 804 20C804 31.0457 812.954 40 824 40Z" fill="#3EE26E"/>
</g>
<defs>
<clipPath id="clip0_59_26">
<rect width="849" height="270" fill="white"/>
</clipPath>
</defs>
</svg>
